<svg width="901" height="814" viewBox="0 0 901 814" fill="none" xmlns="http://www.w3.org/2000/svg">
<path d="M614.444 330.924C664.996 318.987 696.3 268.33 684.363 217.778C672.426 167.226 621.769 135.922 571.216 147.859C520.664 159.796 489.36 210.453 501.297 261.005C513.234 311.558 563.892 342.861 614.444 330.924Z" fill="#262626"/>
<path d="M703.421 347.282C747.109 336.966 774.162 293.187 763.846 249.499C753.53 205.811 709.751 178.757 666.063 189.073C622.374 199.39 595.321 243.169 605.637 286.857C615.953 330.545 659.733 357.599 703.421 347.282Z" fill="#262626"/>
<path d="M646.757 284.283C652.497 270.533 666.107 260.883 681.967 260.963C701.957 261.073 718.847 277.373 719.637 297.353C720.487 318.983 703.197 336.793 681.757 336.793C677.167 336.793 672.777 335.933 668.707 334.443L698.727 522.593L648.337 530.633C610.157 536.723 574.277 510.713 568.187 472.543L540.847 301.203L646.757 284.283Z" fill="#FAFAFA"/>
<path d="M637.266 535.064C601.766 535.064 570.446 509.244 564.676 473.094L537.336 301.754C537.186 300.824 537.416 299.874 537.966 299.114C538.516 298.354 539.356 297.844 540.286 297.694L644.306 281.094C651.206 266.564 665.836 257.344 681.996 257.434C703.856 257.554 722.336 275.404 723.196 297.234C723.646 308.634 719.546 319.434 711.656 327.634C703.766 335.844 693.146 340.364 681.766 340.364C678.866 340.364 675.966 340.044 673.106 339.424L702.246 522.043C702.556 523.983 701.236 525.803 699.296 526.113L648.906 534.154C644.986 534.764 641.096 535.064 637.266 535.064ZM544.906 304.134L571.686 471.974C577.456 508.154 611.606 532.893 647.776 527.124L694.656 519.644L665.196 334.994C664.996 333.754 665.476 332.494 666.446 331.694C667.416 330.894 668.746 330.664 669.926 331.104C673.786 332.524 677.776 333.244 681.756 333.244C691.186 333.244 699.986 329.494 706.526 322.694C713.066 315.894 716.456 306.944 716.086 297.494C715.376 279.414 700.066 264.624 681.946 264.524C681.886 264.524 681.816 264.524 681.756 264.524C667.846 264.524 655.406 272.804 650.036 285.654C649.556 286.784 648.536 287.594 647.316 287.794L544.906 304.134Z" fill="#262626"/>
<path d="M665.707 314.093C663.887 314.093 662.337 312.703 662.167 310.863C661.137 299.573 663.547 290.473 669.307 283.813C677.607 274.223 689.787 273.483 690.307 273.453C692.247 273.383 693.937 274.853 694.037 276.813C694.137 278.773 692.647 280.443 690.687 280.543C690.587 280.553 680.907 281.213 674.627 288.523C670.217 293.663 668.397 300.963 669.247 310.213C669.427 312.163 667.987 313.893 666.027 314.073C665.927 314.093 665.817 314.093 665.707 314.093Z" fill="#262626"/>
<path d="M527.407 273.224C558.484 273.224 583.677 248.031 583.677 216.954C583.677 185.877 558.484 160.684 527.407 160.684C496.33 160.684 471.137 185.877 471.137 216.954C471.137 248.031 496.33 273.224 527.407 273.224Z" fill="#262626"/>
<path d="M681.837 340.173C674.407 340.173 667.107 338.183 660.737 334.413C657.737 332.633 654.977 330.483 652.517 328.033C651.127 326.643 651.127 324.393 652.517 323.013C653.907 321.623 656.157 321.623 657.537 323.013C659.577 325.053 661.867 326.833 664.357 328.303C669.627 331.423 675.677 333.073 681.837 333.073C683.797 333.073 685.387 334.663 685.387 336.623C685.387 338.583 683.797 340.173 681.837 340.173Z" fill="#262626"/>
<path d="M647.657 265.773C642.527 223.103 617.277 188.793 581.247 181.533C533.207 171.843 484.207 213.893 471.787 275.453C459.367 337.013 488.247 394.773 536.277 404.463C572.307 411.733 608.877 389.893 630.147 352.553L647.657 265.773Z" fill="#FAFAFA"/>
<path d="M550.186 409.393C545.316 409.393 540.426 408.913 535.576 407.933C511.246 403.023 490.866 386.353 478.186 360.983C465.656 335.913 462.146 305.283 468.306 274.743C474.466 244.193 489.576 217.323 510.846 199.073C532.366 180.603 557.626 173.143 581.946 178.043C618.516 185.423 645.686 219.683 651.176 265.343C651.406 267.293 650.026 269.063 648.076 269.293C646.136 269.533 644.356 268.143 644.126 266.193C639.006 223.633 614.046 191.773 580.546 185.013C558.406 180.533 535.296 187.453 515.476 204.463C495.396 221.693 481.116 247.153 475.276 276.143C469.426 305.143 472.716 334.143 484.546 357.803C496.226 381.173 514.856 396.493 536.986 400.963C570.496 407.743 605.846 388.023 627.066 350.773C628.036 349.073 630.206 348.473 631.916 349.443C633.626 350.413 634.216 352.583 633.246 354.293C613.496 388.953 582.046 409.393 550.186 409.393Z" fill="#262626"/>
<path d="M651.587 287.994C650.727 288.274 649.877 288.564 648.997 288.814C600.297 302.344 547.867 258.454 531.877 190.784C531.697 190.024 531.547 189.254 531.377 188.494C547.407 179.404 565.027 175.944 582.527 179.774C623.197 188.654 650.447 233.954 651.587 287.994Z" fill="#262626"/>
<path d="M495.016 258.303C496.596 261.043 491.726 266.824 484.136 271.204C476.546 275.583 469.106 276.914 467.526 274.174C465.946 271.434 470.816 265.653 478.406 261.273C486.006 256.893 493.436 255.563 495.016 258.303Z" fill="#262626"/>
<path d="M572.466 270.924C571.646 274.764 562.366 276.034 551.726 273.764C541.096 271.494 533.146 266.534 533.966 262.694C534.786 258.854 544.066 257.584 554.706 259.854C565.336 262.134 573.286 267.084 572.466 270.924Z" fill="#262626"/>
<path d="M510.397 314.474C509.547 314.474 508.697 314.163 508.017 313.553C503.727 309.673 501.797 303.743 502.957 298.083L508.157 272.914C508.557 270.994 510.447 269.774 512.357 270.154C514.277 270.554 515.517 272.434 515.117 274.354L509.917 299.523C509.247 302.773 510.317 306.054 512.787 308.284C514.237 309.604 514.347 311.843 513.037 313.303C512.337 314.083 511.367 314.474 510.397 314.474Z" fill="#262626"/>
<path d="M554.157 295.763C553.007 295.763 551.877 295.203 551.187 294.173C545.047 284.893 539.297 288.183 539.047 288.323C537.357 289.333 535.177 288.773 534.177 287.093C533.177 285.403 533.727 283.223 535.407 282.223C539.467 279.803 549.237 278.363 557.107 290.253C558.187 291.883 557.737 294.093 556.107 295.173C555.507 295.573 554.827 295.763 554.157 295.763Z" fill="#262626"/>
<path d="M477.767 291.063C477.287 291.063 476.807 290.963 476.347 290.763C474.577 289.973 473.747 287.943 474.507 286.163C476.357 281.813 483.387 274.873 496.767 279.833C498.607 280.513 499.547 282.554 498.867 284.394C498.187 286.244 496.147 287.183 494.297 286.493C484.267 282.773 481.327 288.343 481.017 288.993C480.417 290.283 479.117 291.063 477.767 291.063Z" fill="#262626"/>
<path d="M522.546 334.023C519.316 334.023 515.516 333.073 511.206 330.553C509.516 329.563 508.936 327.393 509.936 325.693C510.926 324.003 513.096 323.423 514.796 324.423C524.026 329.823 527.896 324.853 528.306 324.263C529.416 322.673 531.616 322.243 533.226 323.333C534.836 324.413 535.296 326.563 534.236 328.183C532.556 330.753 528.536 334.023 522.546 334.023Z" fill="#262626"/>
<path d="M299.557 465.233L279.617 427.483C279.677 423.123 279.367 392.783 259.577 378.203C239.417 363.343 174.387 317.503 173.727 317.033C172.987 316.513 171.977 316.623 171.377 317.303C170.987 317.733 161.987 328.063 167.987 337.663C172.427 344.763 190.277 368.073 196.817 376.563C187.087 375.873 160.917 373.123 142.457 363.053C141.597 362.573 140.517 362.893 140.047 363.763C139.777 364.253 139.787 364.803 139.987 365.283C139.757 365.323 139.527 365.393 139.317 365.523C139.277 365.543 139.257 365.593 139.227 365.613C138.977 362.683 138.727 359.273 138.547 355.673C138.157 347.963 135.777 342.253 131.467 338.703C125.767 334.003 118.837 334.933 118.557 334.963C118.497 334.973 118.457 335.003 118.397 335.023C118.407 334.723 118.427 334.403 118.437 334.133C119.297 316.893 97.2465 309.343 96.3065 309.033C95.7665 308.853 95.1665 308.943 94.7065 309.283C94.2365 309.613 93.9665 310.153 93.9665 310.723V331.823C90.7965 328.233 79.1065 315.363 73.0365 313.083C66.1065 310.483 53.1265 314.493 52.5665 314.663C52.0165 314.833 51.5865 315.263 51.4065 315.813C51.2265 316.353 51.3265 316.953 51.6665 317.423L93.4965 373.743C93.6165 373.913 93.7865 374.013 93.9465 374.123V387.973C93.9465 388.433 94.1265 388.873 94.4365 389.203L148.337 445.523C148.567 445.763 148.857 445.933 149.187 446.013L214.947 462.653L223.267 494.893C223.397 495.383 223.727 495.803 224.177 496.033C224.427 496.163 224.707 496.223 224.987 496.223C225.207 496.223 225.427 496.183 225.627 496.103L298.617 467.753C299.087 467.573 299.467 467.193 299.637 466.723C299.827 466.203 299.787 465.683 299.557 465.233Z" fill="#FAFAFA"/>
<path d="M502.737 788.453C502.737 788.453 461.597 676.523 462.767 559.993C462.997 536.813 472.227 494.253 482.027 482.483C497.267 464.183 525.237 454.283 552.797 457.363L736.397 477.913C768.767 481.533 792.317 502.083 792.657 526.993L795.817 753.483C796.227 783.183 763.907 808.173 724.657 808.493C609.987 809.413 498.057 828.513 502.737 788.453Z" fill="#262626"/>
<path d="M297.986 469.613C296.716 469.613 295.476 468.923 294.846 467.723L274.686 429.573C274.396 429.033 274.256 428.413 274.276 427.803C274.286 427.483 275.016 396.213 256.416 382.503C238.746 369.483 186.446 332.543 173.556 323.443C171.886 326.253 170.016 330.863 172.506 334.853C177.716 343.193 203.156 376.063 203.406 376.393C204.246 377.483 204.386 378.953 203.766 380.183C203.146 381.403 201.966 382.143 200.496 382.123C199.016 382.073 163.976 380.873 139.906 367.743C138.186 366.803 137.546 364.643 138.486 362.923C139.426 361.203 141.586 360.563 143.306 361.503C159.346 370.253 181.416 373.383 192.956 374.473C185.196 364.363 170.476 345.023 166.476 338.623C159.776 327.903 169.626 316.623 170.056 316.143C171.256 314.783 173.276 314.553 174.756 315.603C175.406 316.063 240.456 361.923 260.636 376.793C280.506 391.433 281.416 421.193 281.396 427.063L301.126 464.413C302.046 466.143 301.376 468.293 299.646 469.213C299.106 469.483 298.546 469.613 297.986 469.613Z" fill="#262626"/>
<path d="M94.9367 376.213C93.8467 376.213 92.7767 375.713 92.0767 374.783L50.2367 318.463C49.5467 317.533 49.3567 316.343 49.7067 315.243C50.0667 314.153 50.9267 313.293 52.0267 312.953C53.4667 312.503 66.2767 308.653 73.6367 311.403C80.5667 314.003 93.4667 328.553 95.9867 331.443C97.2767 332.923 97.1167 335.163 95.6367 336.453C94.1567 337.743 91.9167 337.583 90.6267 336.113C85.2567 329.943 75.2067 319.593 71.1367 318.063C68.4367 317.053 63.4067 317.583 59.0867 318.473L97.7667 370.543C98.9367 372.123 98.6067 374.343 97.0367 375.513C96.4067 375.983 95.6667 376.213 94.9367 376.213Z" fill="#262626"/>
<path d="M224.987 497.963C223.407 497.963 221.967 496.903 221.547 495.303L213.487 464.093L148.757 447.713C148.107 447.553 147.527 447.203 147.067 446.723L93.1668 390.403C92.5368 389.743 92.1768 388.863 92.1768 387.943V310.713C92.1768 309.573 92.7268 308.503 93.6568 307.833C94.5868 307.163 95.7668 306.973 96.8568 307.343C97.8468 307.673 121.127 315.653 120.197 334.223C119.407 350.033 119.657 405.873 119.667 406.433C119.667 406.843 119.597 407.243 119.477 407.613L151.507 441.073L217.287 457.723C218.547 458.043 219.527 459.023 219.857 460.283L228.437 493.533C228.927 495.433 227.787 497.373 225.887 497.863C225.587 497.933 225.287 497.963 224.987 497.963ZM99.2868 386.523L112.537 400.373C112.497 385.303 112.447 346.903 113.107 333.873C113.557 324.903 104.917 319.013 99.2868 316.143V386.523Z" fill="#262626"/>
<path d="M138.367 378.633C136.597 378.633 135.067 377.313 134.847 375.513C134.797 375.143 133.737 366.403 133.217 355.943C132.907 349.793 131.177 345.383 128.067 342.813C124.217 339.643 119.337 340.223 119.297 340.243C117.377 340.553 115.557 339.173 115.277 337.233C114.997 335.293 116.347 333.493 118.287 333.213C118.607 333.163 126.277 332.143 132.577 337.333C137.297 341.223 139.897 347.363 140.307 355.593C140.817 365.783 141.887 374.563 141.897 374.653C142.137 376.603 140.747 378.373 138.807 378.603C138.657 378.623 138.507 378.633 138.367 378.633Z" fill="#262626"/>
<path d="M149.107 445.403C147.807 445.403 146.567 444.693 145.937 443.463L130.387 412.893C130.047 412.233 129.927 411.483 130.037 410.753L136.747 366.503C136.907 365.473 137.497 364.573 138.377 364.023C139.257 363.483 140.337 363.333 141.327 363.653C142.917 364.153 156.977 368.833 159.527 379.053C161.467 386.823 160.407 403.013 160.007 408.003L170.947 421.253C177.947 416.723 196.827 406.573 217.727 412.993C219.597 413.573 220.657 415.563 220.077 417.433C219.497 419.303 217.497 420.353 215.637 419.783C193.247 412.883 172.677 428.683 172.477 428.843C170.957 430.033 168.777 429.793 167.557 428.303L153.607 411.403C153.007 410.683 152.727 409.753 152.807 408.823C153.317 403.243 154.267 387.333 152.627 380.773C151.667 376.943 146.897 373.853 143.097 372.023L137.237 410.703L152.277 440.253C153.167 442.003 152.467 444.143 150.727 445.033C150.197 445.283 149.647 445.403 149.107 445.403Z" fill="#262626"/>
<path d="M436.197 700.003L413.347 712.703C378.187 732.233 333.927 721.563 311.537 688.143L192.837 510.983C192.837 510.983 251.907 444.823 303.887 463.733C355.867 482.633 383.037 553.513 383.037 553.513C383.037 553.513 490.937 471.603 508.657 463.333C526.377 455.073 570.867 566.513 436.197 700.003Z" fill="#262626"/>
<path d="M657.317 693.513L617.407 688.813L577.287 671.373L543.817 629.973C543.657 629.773 543.457 629.613 543.227 629.493L495.617 605.863C495.207 605.663 494.737 605.623 494.317 605.753C494.007 605.843 486.687 608.123 484.867 614.523C483.527 619.263 485.577 624.763 490.987 630.873C504.497 646.143 514.677 654.053 516.867 655.693L524.257 673.863L474.017 682.733L429.827 663.713C427.357 662.643 405.487 653.513 399.677 663.883C397.167 668.373 401.237 674.973 407.037 681.283C401.147 679.313 396.857 679.453 394.107 681.793C388.697 686.403 392.187 697.023 392.597 698.213C392.737 698.603 392.997 698.923 393.347 699.143L415.347 712.733C414.627 712.253 413.657 712.313 413.047 712.963C412.387 713.693 412.427 714.813 413.147 715.473L433.877 734.533C433.807 734.953 433.867 735.393 434.107 735.783L447.297 756.853C447.497 757.163 447.787 757.413 448.127 757.553L488.287 774.093C488.457 774.163 488.627 774.203 488.807 774.223L576.207 781.773C579.917 782.093 583.617 782.253 587.307 782.253C598.427 782.253 609.487 780.813 620.307 777.933L649.287 770.233C649.997 770.043 650.517 769.443 650.597 768.713L658.867 695.463C658.977 694.503 658.287 693.623 657.317 693.513Z" fill="#FAFAFA"/>
<path d="M502.967 719.183C502.897 719.183 502.827 719.183 502.757 719.173L463.557 716.933C463.127 716.913 462.697 716.803 462.307 716.623L427.017 700.753C426.797 700.653 426.587 700.533 426.387 700.393C415.867 692.763 392.037 673.863 398.107 663.023C404.667 651.303 427.887 660.953 430.517 662.093L474.207 680.903L533.027 670.513C534.957 670.153 536.797 671.463 537.147 673.393C537.487 675.323 536.197 677.163 534.267 677.503L474.397 688.073C473.717 688.193 473.007 688.113 472.377 687.843L427.697 668.603C419.717 665.143 406.767 662.083 404.307 666.483C402.447 669.803 415.027 683.323 430.257 694.423L464.607 709.873L503.147 712.083C505.107 712.193 506.607 713.873 506.487 715.833C506.397 717.723 504.827 719.183 502.967 719.183Z" fill="#262626"/>
<path d="M503.797 743.313C503.677 743.313 503.557 743.303 503.437 743.293L454.147 738.383C453.607 738.333 453.097 738.153 452.637 737.873L392.387 700.663C391.687 700.233 391.167 699.583 390.897 698.803C390.437 697.493 386.617 685.823 392.927 680.443C397.597 676.473 405.537 677.603 417.197 683.873C418.927 684.803 419.567 686.963 418.637 688.683C417.707 690.413 415.557 691.053 413.827 690.133C401.407 683.443 398.077 685.383 397.537 685.853C395.917 687.233 396.297 691.873 397.247 695.313L455.667 731.393L504.137 736.223C506.087 736.413 507.517 738.163 507.317 740.113C507.147 741.943 505.597 743.313 503.797 743.313Z" fill="#262626"/>
<path d="M505.036 764.583C504.756 764.583 504.476 764.553 504.196 764.483L450.126 751.293C449.546 751.153 449.006 750.863 448.566 750.453L411.946 716.783C410.496 715.453 410.406 713.203 411.736 711.763C413.066 710.323 415.316 710.223 416.756 711.553L452.706 744.603L505.886 757.573C507.796 758.033 508.966 759.963 508.496 761.863C508.086 763.503 506.636 764.583 505.036 764.583Z" fill="#262626"/>
<path d="M587.316 784.023C583.566 784.023 579.816 783.863 576.056 783.533L488.666 775.983C488.306 775.953 487.956 775.873 487.616 775.733L447.456 759.193C446.766 758.913 446.196 758.423 445.796 757.793L432.606 736.723C431.566 735.063 432.066 732.873 433.736 731.833C435.406 730.793 437.586 731.293 438.636 732.963L451.226 753.063L489.836 768.963L576.686 776.463C590.926 777.693 605.146 776.453 618.956 772.783L645.596 765.713L653.196 698.393L616.546 694.083C616.196 694.043 615.866 693.953 615.546 693.813L574.786 676.093C574.256 675.863 573.796 675.513 573.436 675.073L540.176 633.943L494.686 611.373C493.176 612.093 490.666 613.613 489.996 616.043C489.206 618.873 490.936 622.793 494.986 627.383C509.486 643.783 520.296 651.633 520.396 651.713C520.936 652.103 521.356 652.643 521.616 653.253L529.286 672.103C530.026 673.923 529.146 675.993 527.336 676.733C525.516 677.453 523.446 676.593 522.706 674.783L515.406 656.843C512.506 654.633 502.566 646.673 489.666 632.083C483.836 625.493 481.646 619.423 483.166 614.073C485.246 606.753 493.466 604.193 493.806 604.093C494.676 603.823 495.606 603.913 496.416 604.313L544.026 627.943C544.486 628.173 544.886 628.493 545.206 628.893L578.406 669.953L617.886 687.113L657.526 691.773C659.466 692.003 660.866 693.753 660.646 695.703L652.376 768.953C652.216 770.403 651.176 771.613 649.756 771.993L620.766 779.693C609.796 782.563 598.586 784.023 587.316 784.023Z" fill="#262626"/>
<path d="M674.156 506.153H566.786C557.296 506.153 549.606 498.463 549.606 488.973V434.843C549.606 425.353 557.296 417.663 566.786 417.663H674.156C683.646 417.663 691.336 425.353 691.336 434.843V488.973C691.336 498.463 683.646 506.153 674.156 506.153Z" fill="#262626"/>
<path d="M647.747 693.813C653.567 696.453 791.877 667.043 791.877 667.043C791.877 667.043 888.937 635.143 899.627 707.533C910.317 779.933 811.077 797.253 811.077 797.253L651.987 798.833L647.747 693.813Z" fill="#262626"/>
<path d="M686.637 601.953L762.247 691.733C762.247 691.733 901.537 750.123 899.627 707.543C897.717 664.953 803.207 520.043 803.207 520.043C803.207 520.043 732.317 405.063 686.637 601.953Z" fill="#262626"/>
<path d="M657.317 697.063C655.647 697.063 654.157 695.883 653.827 694.173C653.457 692.243 654.727 690.383 656.647 690.013C660.767 689.223 758.077 670.883 805.467 680.363C807.387 680.753 808.637 682.613 808.257 684.543C807.877 686.473 806.007 687.723 804.077 687.333C758.047 678.133 658.977 696.803 657.977 696.993C657.757 697.043 657.537 697.063 657.317 697.063Z" fill="#FAFAFA"/>
<path d="M763.827 684.263C762.637 684.263 761.477 683.663 760.807 682.583L732.457 636.903C731.417 635.233 731.937 633.043 733.597 632.013C735.257 630.973 737.457 631.493 738.487 633.153L766.837 678.833C767.877 680.503 767.357 682.693 765.697 683.723C765.117 684.083 764.467 684.263 763.827 684.263Z" fill="#FAFAFA"/>
<path d="M331.687 206.253L321.427 187.483L302.667 177.223L321.427 166.963L331.687 148.193L341.947 166.963L360.717 177.223L341.947 187.483L331.687 206.253ZM317.457 177.223L326.647 182.253L331.677 191.443L336.707 182.253L345.897 177.223L336.707 172.193L331.677 163.003L326.647 172.193L317.457 177.223Z" fill="#FAFAFA"/>
<path d="M420.936 137.903L406.236 111.033L379.366 96.3332L406.236 81.6332L420.936 54.7632L435.636 81.6332L462.506 96.3332L435.636 111.033L420.936 137.903ZM394.176 96.3332L411.476 105.793L420.936 123.093L430.396 105.793L447.696 96.3332L430.396 86.8732L420.936 69.5832L411.476 86.8732L394.176 96.3332Z" fill="#FAFAFA"/>
<path d="M9.76664 65.9835C-11.3434 113.094 2.60664 168.534 43.5066 200.034L58.9066 211.894C96.7266 241.024 125.747 280.064 142.747 324.674L144.137 328.324L231.527 295.023L230.137 291.374C213.137 246.764 208.817 198.314 217.667 151.394L221.267 132.294C230.827 81.5635 204.347 30.8935 157.247 9.78351C100.997 -15.4165 34.9666 9.74351 9.76664 65.9835Z" fill="#FAFAFA"/>
<path d="M209.077 333.513L184.057 343.043C162.097 351.413 137.507 340.393 129.147 318.433L113.797 278.153L218.337 238.313L233.687 278.593C242.057 300.563 231.037 325.143 209.077 333.513Z" fill="#262626"/>
<path d="M157.187 269.234C155.757 269.234 154.407 268.364 153.867 266.944L123.387 186.944C119.947 187.914 116.497 188.594 113.097 188.954C93.0671 191.074 77.8971 180.674 76.2571 169.664C75.3571 163.624 78.6171 156.344 90.4771 154.044C109.717 150.284 126.347 175.744 127.057 176.824C127.187 177.034 127.297 177.254 127.387 177.484L127.587 178.014C133.557 175.634 139.397 172.314 144.717 168.304C143.557 165.524 142.557 163.214 141.757 161.514C133.427 143.784 130.557 133.674 135.517 120.594C142.577 101.984 154.067 101.414 158.687 102.044C167.817 103.274 175.417 111.724 176.367 121.704C178.127 140.214 168.017 157.934 153.317 170.574C164.507 198.364 184.577 253.814 185.577 256.584C186.247 258.434 185.287 260.464 183.447 261.134C181.607 261.804 179.567 260.844 178.897 259.004C178.657 258.344 158.877 203.674 147.497 175.154C142.037 179.064 136.147 182.294 130.117 184.674L160.507 264.424C161.207 266.264 160.287 268.314 158.447 269.014C158.037 269.164 157.607 269.234 157.187 269.234ZM94.4271 160.774C93.5671 160.774 92.6971 160.854 91.8271 161.024C88.3171 161.704 82.5271 163.604 83.2771 168.624C84.2771 175.334 95.8071 183.594 112.347 181.894C115.137 181.604 117.977 181.054 120.807 180.284C118.897 177.474 106.967 160.774 94.4271 160.774ZM156.437 108.994C150.747 108.994 145.607 114.054 142.167 123.114C138.457 132.904 139.747 140.504 148.197 158.494C148.827 159.844 149.577 161.544 150.427 163.544C162.567 152.374 170.727 137.444 169.297 122.364C168.667 115.704 163.587 109.864 157.747 109.074C157.307 109.024 156.867 108.994 156.437 108.994Z" fill="#262626"/>
</svg>
