<svg width="996" height="842" viewBox="0 0 996 842" fill="none" xmlns="http://www.w3.org/2000/svg">
<path d="M806.82 587.45H38.5998C19.2398 587.45 3.5498 571.76 3.5498 552.4V38.5998C3.5498 19.2398 19.2398 3.5498 38.5998 3.5498H806.82C826.18 3.5498 841.87 19.2398 841.87 38.5998V552.41C841.87 571.76 826.18 587.45 806.82 587.45Z" fill="#FAFAFA"/>
<path d="M806.82 591.01H38.6C17.32 591.01 0 573.7 0 552.41V38.6C0 17.32 17.32 0 38.6 0H806.82C828.1 0 845.42 17.32 845.42 38.6V552.41C845.42 573.69 828.1 591.01 806.82 591.01ZM38.6 7.1C21.23 7.1 7.1 21.24 7.1 38.6V552.41C7.1 569.78 21.23 583.9 38.6 583.9H806.82C824.19 583.9 838.32 569.77 838.32 552.41V38.6C838.32 21.23 824.19 7.1 806.82 7.1H38.6Z" fill="#262626"/>
<path d="M51.4801 61.3299C42.0501 61.3299 34.3701 53.6599 34.3701 44.2199C34.3701 34.7799 42.0501 27.1099 51.4801 27.1099C60.9101 27.1099 68.5901 34.7799 68.5901 44.2199C68.5901 53.6599 60.9101 61.3299 51.4801 61.3299ZM51.4801 34.2199C45.9601 34.2199 41.4801 38.7099 41.4801 44.2199C41.4801 49.7299 45.9701 54.2199 51.4801 54.2199C56.9901 54.2199 61.4801 49.7299 61.4801 44.2199C61.4801 38.7099 56.9901 34.2199 51.4801 34.2199Z" fill="#262626"/>
<path d="M97.1002 61.3299C87.6702 61.3299 79.9902 53.6599 79.9902 44.2199C79.9902 34.7799 87.6602 27.1099 97.1002 27.1099C106.53 27.1099 114.21 34.7799 114.21 44.2199C114.21 53.6599 106.53 61.3299 97.1002 61.3299ZM97.1002 34.2199C91.5902 34.2199 87.1002 38.7099 87.1002 44.2199C87.1002 49.7299 91.5902 54.2199 97.1002 54.2199C102.61 54.2199 107.1 49.7299 107.1 44.2199C107.1 38.7099 102.61 34.2199 97.1002 34.2199Z" fill="#262626"/>
<path d="M142.71 61.3299C133.28 61.3299 125.6 53.6599 125.6 44.2199C125.6 34.7799 133.27 27.1099 142.71 27.1099C152.14 27.1099 159.82 34.7799 159.82 44.2199C159.82 53.6599 152.15 61.3299 142.71 61.3299ZM142.71 34.2199C137.2 34.2199 132.71 38.7099 132.71 44.2199C132.71 49.7299 137.2 54.2199 142.71 54.2199C148.23 54.2199 152.71 49.7299 152.71 44.2199C152.71 38.7099 148.23 34.2199 142.71 34.2199Z" fill="#262626"/>
<path d="M286.04 841.35C285.25 841.35 284.46 841.09 283.8 840.56C282.28 839.32 282.05 837.08 283.28 835.56L307.6 805.64C308.84 804.12 311.07 803.89 312.6 805.12C314.12 806.36 314.35 808.6 313.12 810.12L288.8 840.04C288.1 840.91 287.07 841.35 286.04 841.35Z" fill="#FAFAFA"/>
<path d="M425.31 152.78L376.83 149.36L340.03 138.45C327.98 134.88 314.98 136.49 304.17 142.91L303.61 143.24L301.03 142.89C285.83 140.81 270.61 146.6 260.63 158.25L240.47 181.78L236.07 147.04L268.33 121.53C274.3 115.97 276.69 107.54 274.52 99.6702L272.71 93.1202C271.17 87.5602 264.49 85.3202 259.91 88.8302L209 127.91C201.17 133.92 197.05 143.59 198.13 153.4L204.05 207.02C191.67 232.81 187.99 261.92 193.54 289.98L202.86 337.08L159.74 542.26L293.62 537.34L319.7 323.39L338.36 324.81C355.69 326.13 372.46 318.32 382.62 304.22L422.23 249.2C426.12 243.8 424.18 236.2 418.18 233.32L413.26 230.96C402.78 225.93 390.25 228.31 382.35 236.83L360.87 259.99C354.15 267.24 344.09 270.38 334.44 268.26L334.29 268.23L355.54 187.85L408.01 181.62C416.64 180.6 424.43 175.94 429.42 168.82L431.5 165.85C435.25 160.55 431.76 153.23 425.31 152.78Z" fill="#FAFAFA"/>
<path d="M159.77 545.82C158.72 545.82 157.73 545.36 157.05 544.56C156.35 543.72 156.06 542.61 156.29 541.54L199.26 337.07L190.08 290.68C184.48 262.39 188.16 232.51 200.43 206.41L194.62 153.8C193.41 142.83 198.1 131.83 206.86 125.1L257.77 86.0201C260.86 83.6501 264.91 82.9801 268.6 84.2101C272.29 85.4501 275.12 88.4301 276.15 92.1901L277.96 98.7401C280.49 107.92 277.74 117.66 270.77 124.14L239.86 148.59L243 173.39L257.94 155.95C268.75 143.33 285.04 137.14 301.52 139.38L302.87 139.56C314.39 132.91 328.27 131.27 341.05 135.05L377.48 145.85L425.57 149.25C429.89 149.55 433.58 152.07 435.45 155.98C437.31 159.89 436.94 164.35 434.46 167.9L432.38 170.87C426.82 178.8 418.11 184.01 408.48 185.16L358.41 191.1L338.79 265.29C346.16 265.75 353.33 262.97 358.32 257.58L379.8 234.43C388.81 224.71 402.9 222.03 414.85 227.77L419.76 230.13C423.57 231.96 426.35 235.35 427.4 239.45C428.44 243.54 427.63 247.86 425.16 251.29L385.55 306.31C374.75 321.32 356.57 329.77 338.14 328.37L322.87 327.21L297.2 537.79C296.99 539.52 295.55 540.85 293.8 540.91L159.92 545.84C159.86 545.82 159.82 545.82 159.77 545.82ZM264.87 90.7001C263.88 90.7001 262.92 91.0301 262.1 91.6501L211.19 130.73C204.39 135.95 200.75 144.49 201.69 153.02L207.61 206.64C207.68 207.3 207.57 207.97 207.28 208.57C195.32 233.5 191.69 262.18 197.05 289.31L206.37 336.41C206.46 336.88 206.46 337.36 206.36 337.83L164.18 538.57L290.49 533.92L316.2 322.98C316.43 321.1 318.11 319.78 320 319.87L338.66 321.29C354.64 322.48 370.4 315.18 379.76 302.16L419.37 247.14C420.61 245.42 421.01 243.26 420.49 241.21C419.97 239.16 418.57 237.46 416.66 236.54L411.75 234.18C402.62 229.81 391.86 231.84 384.98 239.26L363.5 262.41C355.96 270.54 344.53 274.12 333.7 271.74C332.75 271.53 331.86 270.93 331.35 270.11C330.85 269.28 330.62 268.27 330.87 267.33L352.13 186.95C352.5 185.54 353.7 184.5 355.15 184.33L407.62 178.1C415.24 177.19 422.13 173.07 426.54 166.79L428.62 163.82C429.62 162.4 429.77 160.61 429.02 159.04C428.27 157.47 426.79 156.46 425.06 156.34L376.58 152.92C376.32 152.9 376.07 152.86 375.82 152.78L339.02 141.87C327.95 138.58 315.9 140.08 305.98 145.98L305.42 146.31C304.73 146.72 303.92 146.88 303.13 146.78L300.55 146.43C286.48 144.51 272.56 149.8 263.33 160.58L243.18 184.12C242.26 185.19 240.81 185.62 239.46 185.21C238.11 184.81 237.13 183.65 236.96 182.25L232.57 147.51C232.41 146.28 232.91 145.05 233.89 144.28L266.15 118.77C270.96 114.28 272.94 107.26 271.12 100.64L269.31 94.0901C268.9 92.6001 267.82 91.4601 266.35 90.9601C265.86 90.7801 265.36 90.7001 264.87 90.7001Z" fill="#262626"/>
<path d="M269.7 199.89C269.09 199.89 268.47 199.73 267.91 199.4C266.22 198.41 265.65 196.23 266.64 194.54L297.98 141.09C298.97 139.39 301.15 138.83 302.84 139.82C304.53 140.81 305.1 142.99 304.11 144.68L272.77 198.13C272.1 199.26 270.92 199.89 269.7 199.89Z" fill="#262626"/>
<path d="M235.98 195.57C235.5 195.57 235.02 195.47 234.55 195.27C232.75 194.48 231.94 192.38 232.73 190.59L237.23 180.36C238.02 178.56 240.11 177.75 241.91 178.54C243.71 179.33 244.52 181.43 243.73 183.22L239.23 193.45C238.65 194.78 237.35 195.57 235.98 195.57Z" fill="#262626"/>
<path d="M149.26 315.17L433.17 170.59L485.16 162.59L448.11 199.94L164.21 344.52C153.13 339.27 146.99 327.21 149.26 315.17Z" fill="#FAFAFA"/>
<path d="M149.26 315.17L433.17 170.59L448.12 199.94L164.21 344.52C153.13 339.27 146.99 327.21 149.26 315.17Z" fill="#262626"/>
<path d="M164.21 348.07C163.69 348.07 163.17 347.96 162.69 347.73C150.16 341.8 143.21 328.14 145.77 314.51C145.97 313.43 146.67 312.5 147.65 312.01L431.56 167.43C431.9 167.26 432.26 167.14 432.63 167.08L484.62 159.08C486.12 158.85 487.63 159.61 488.33 160.98C489.03 162.35 488.77 164.01 487.69 165.09L450.65 202.44C450.38 202.71 450.08 202.93 449.74 203.1L165.82 347.68C165.32 347.94 164.76 348.07 164.21 348.07ZM152.5 317.5C151.43 326.82 156.06 335.9 164.22 340.52L446 197.03L475.05 167.74L434.27 174.01L152.5 317.5Z" fill="#262626"/>
<path d="M767.43 524.34L632.95 439.88L656.57 293.33L792.62 315.26L767.43 524.34Z" fill="#FAFAFA"/>
<path d="M767.43 527.89C766.77 527.89 766.12 527.71 765.54 527.35L631.06 442.89C629.85 442.13 629.21 440.73 629.44 439.32L653.06 292.77C653.21 291.84 653.72 291.01 654.49 290.46C655.25 289.9 656.2 289.68 657.14 289.83L793.19 311.76C795.07 312.07 796.38 313.8 796.15 315.69L770.96 524.77C770.81 525.98 770.06 527.03 768.96 527.55C768.47 527.78 767.95 527.89 767.43 527.89ZM636.83 438.12L764.57 518.35L788.68 318.22L659.51 297.4L636.83 438.12Z" fill="#262626"/>
<path d="M773.29 124.46C773.29 124.46 698.46 166.27 682.8 156.43C667.14 146.6 630.83 113.88 647.38 84.8701C663.93 55.8501 671.73 68.5001 684.92 74.5201C698.11 80.5401 709.07 47.7601 718.01 50.3201C726.95 52.8701 734.69 60.7601 748.17 78.0301C761.65 95.3001 773.29 124.46 773.29 124.46Z" fill="#262626"/>
<path d="M749.47 362.43C782.45 358.27 814.27 341.61 837.27 313.36C883.75 256.28 875.58 174.76 821.34 128.5C732.36 52.5902 652.44 122.49 641.6 141.33C639.06 145.74 636.59 150.01 634.17 154.12C629.3 160.54 625.07 167.24 621.49 174.17C611.8 188.03 602.18 197.48 590.97 199.13C573.81 201.67 559.43 328.45 654.73 336.54L749.47 362.43Z" fill="#FAFAFA"/>
<path d="M749.47 365.98C747.71 365.98 746.18 364.67 745.95 362.87C745.71 360.92 747.08 359.15 749.03 358.9C782.5 354.68 812.86 337.71 834.52 311.11C879.44 255.95 872.64 176.92 819.04 131.2C786.99 103.86 753.15 93.02 718.47 99.03C677.94 106.04 649.82 134.18 644.69 143.09C642.14 147.51 639.67 151.79 637.24 155.91C637.17 156.03 637.09 156.15 637.01 156.25C632.32 162.43 628.16 169 624.66 175.78C624.59 175.92 624.5 176.06 624.41 176.19C612.77 192.83 602.61 200.99 591.5 202.63C588.23 203.11 581.29 219.89 582.1 245.71C582.69 264.78 589.71 327.44 655.04 332.98C656.99 333.15 658.45 334.86 658.28 336.82C658.11 338.77 656.39 340.24 654.44 340.06C627.36 337.76 606.57 326.15 592.63 305.55C581.97 289.8 575.71 268.63 575.01 245.93C574.28 222.42 579.86 197.17 590.47 195.6C599.46 194.27 608.1 187.08 618.47 172.3C622.1 165.3 626.4 158.51 631.24 152.12C633.63 148.07 636.05 143.88 638.55 139.54C646.11 126.41 676.95 98.99 717.27 92.02C754.13 85.63 789.93 97.01 823.67 125.78C880.23 174.03 887.43 257.4 840.05 315.59C817.23 343.6 785.23 361.49 749.94 365.94C749.77 365.97 749.62 365.98 749.47 365.98Z" fill="#262626"/>
<path d="M848.09 110.79C811.15 80.71 763.03 73.26 719.72 86.39C731.48 91.6 742.69 98.3 753.03 106.71C823.18 163.83 827.92 274.13 763.63 353.08C760.06 357.46 756.33 361.63 752.5 365.64C794.35 365.58 836.33 346.98 865.37 311.32C915.79 249.4 908.06 159.62 848.09 110.79Z" fill="#262626"/>
<path d="M726.82 162.44C734.88 144.14 758.91 151.28 744.26 138.73C716.56 115 712.49 75.8502 712.49 75.8502C792.69 69.3402 850.7 198.06 850.7 198.06L802.9 346.83L784.26 379.96L746.33 369.52C733.74 366.05 724.87 354.79 724.45 341.74L722.26 273.53C722.77 274.01 723.28 274.5 723.83 274.95C737.04 285.71 756.47 283.72 767.22 270.51C777.98 257.3 775.99 237.87 762.78 227.12C749.57 216.36 730.14 218.35 719.39 231.56C719.33 231.63 719.28 231.71 719.23 231.78C715.39 229.51 706.75 223.4 711.45 216.42C717.39 207.6 718.76 180.74 726.82 162.44Z" fill="#262626"/>
<path d="M601.4 265.76C600.83 265.76 600.26 265.74 599.67 265.7C597.71 265.56 596.24 263.86 596.38 261.9C596.52 259.94 598.21 258.47 600.18 258.61C609.83 259.28 616.75 251.12 616.82 251.04C618.06 249.53 620.3 249.31 621.82 250.55C623.33 251.79 623.56 254.02 622.32 255.54C621.98 255.97 613.85 265.76 601.4 265.76Z" fill="#262626"/>
<path d="M729.85 251.29C729.23 251.29 728.61 251.13 728.05 250.79C726.37 249.79 725.8 247.63 726.79 245.94C727.09 245.43 734.23 233.53 747.65 232.46C749.63 232.34 751.32 233.77 751.47 235.72C751.62 237.68 750.17 239.39 748.21 239.54C738.53 240.31 732.96 249.45 732.91 249.55C732.24 250.67 731.06 251.29 729.85 251.29Z" fill="#262626"/>
<path d="M674.47 176.39C674.1 176.39 673.73 176.33 673.36 176.21C671.5 175.6 670.48 173.59 671.09 171.73C672.15 168.48 670.65 161.83 666.29 156.33C663.74 153.11 658.14 147.87 649.33 148.58C647.36 148.77 645.65 147.3 645.49 145.35C645.32 143.39 646.77 141.67 648.72 141.51C657.72 140.69 665.92 144.43 671.86 151.93C677.36 158.87 679.82 167.93 677.84 173.96C677.36 175.44 675.97 176.39 674.47 176.39Z" fill="#262626"/>
<path d="M642.82 188.51C639.96 191.29 636.02 191.88 634.01 189.82C632.01 187.76 632.7 183.84 635.56 181.05C638.42 178.27 642.36 177.68 644.37 179.74C646.37 181.8 645.68 185.73 642.82 188.51Z" fill="#262626"/>
<path d="M650.33 332.52L642.77 379.42C664.05 374.59 683.94 362.9 698.79 344.67C704.73 337.38 709.45 329.5 713.05 321.29C693.84 331.73 671.77 335.56 650.33 332.52Z" fill="#262626"/>
<path d="M995.05 834.72L878.83 486.58C862.28 445.08 821.76 418.15 777.09 418.95L605.41 422.05C571.46 423.1 538.26 432.34 508.66 449L306.72 559.95L304.79 485.93L165.77 507L119.71 634.88C89.6501 718.35 172.61 798.01 254.79 764.58L506.73 662.11L540.63 836.38L995.05 834.72Z" fill="#262626"/>
<path d="M506.73 665.67C505.04 665.67 503.55 664.46 503.24 662.75L493.52 608.56C493.17 606.63 494.46 604.78 496.39 604.44C498.32 604.09 500.17 605.38 500.52 607.31L510.24 661.5C510.59 663.43 509.3 665.28 507.37 665.63C507.15 665.65 506.94 665.67 506.73 665.67Z" fill="#FAFAFA"/>
<path d="M213.49 618.57C212.26 618.57 211.06 617.93 210.41 616.79C209.43 615.09 210.02 612.92 211.72 611.94L301.41 560.42C303.11 559.45 305.28 560.03 306.26 561.73C307.24 563.43 306.65 565.6 304.95 566.58L215.26 618.1C214.7 618.42 214.09 618.57 213.49 618.57Z" fill="#FAFAFA"/>
<path d="M612.39 461.37L626.57 383.4L795.86 391.81L817.94 454.28L612.39 461.37Z" fill="#262626"/>
<path d="M625.68 421.74C623.83 421.74 622.27 420.31 622.14 418.44C622 416.48 623.47 414.78 625.43 414.64C674.65 411.12 812.22 414.6 813.61 414.63C815.57 414.68 817.12 416.31 817.07 418.27C817.02 420.2 815.44 421.73 813.52 421.73C813.49 421.73 813.46 421.73 813.43 421.73C812.05 421.69 674.81 418.23 625.94 421.72C625.85 421.74 625.76 421.74 625.68 421.74Z" fill="#FAFAFA"/>
</svg>
