<svg width="1072" height="782" viewBox="0 0 1072 782" fill="none" xmlns="http://www.w3.org/2000/svg">
<path d="M857.51 182.71C851.75 115.13 780.67 66.4402 700.17 76.1302C627.82 84.8302 572.68 139.45 574.15 201C574.8 228.3 590.5 258.11 623.58 277.01C661.03 289.28 687.14 289.43 735.28 285.02C807.1 278.43 857.66 184.51 857.51 182.71Z" fill="#262626"/>
<path d="M93.5905 152.94L73.8605 137.51L38.6205 150.91C27.9205 158.49 24.7805 162.27 18.0505 172.42L12.9005 177.08C12.9005 177.08 -5.24954 84.3699 39.0905 51.5899C83.4305 18.8099 160.26 -17.4001 192.68 16.5799C225.1 50.5599 240.87 125.17 240.87 125.17C240.87 125.17 216.1 149.37 202.85 127.19C184.7 96.7899 176.29 81.2999 176.29 81.2999L207.98 162.52C207.98 162.52 192.31 173.96 174.5 175.53C156.7 177.11 130.69 187.32 93.5905 152.94Z" fill="#FAFAFA"/>
<path d="M1038.78 381.07C1045.6 329.11 1005.49 282.42 953.079 282.26C952.689 282.26 952.339 282.26 952.019 282.27C878.769 283.71 877.189 236.8 877.199 234.26C877.629 154.53 811.779 89.9002 731.329 92.6002C659.029 95.0302 565.589 159.38 595.459 225.27C642.479 328.98 595.269 411.29 651.929 416.4C698.449 420.59 917.159 427.75 1009.43 411.65C1024.86 408.96 1036.74 396.59 1038.78 381.07Z" fill="#262626"/>
<path d="M1050.63 585.38L934.55 385.66C918.29 357.69 884.15 332.95 852.76 340.8L691.31 390.42C591.62 368.56 259.73 328.99 259.73 328.99L121.12 130.52L15.5898 158.87L100.65 339.34C154.2 429.79 168.32 454.19 233.4 469.2L609.4 588.88L689.73 771.59L855.12 775.53H941.2C1011.1 775.53 1067.76 718.87 1067.76 648.97C1067.77 626.64 1061.85 604.7 1050.63 585.38Z" fill="#FAFAFA"/>
<path d="M941.21 779.08H855.13L689.66 775.14C688.28 775.11 687.05 774.28 686.49 773.02L606.8 591.78L232.32 472.59C166.41 457.4 152.03 433.1 98.5 342.69L97.59 341.15L12.37 160.39C11.92 159.44 11.92 158.34 12.36 157.38C12.8 156.43 13.65 155.72 14.66 155.44L120.19 127.09C121.63 126.69 123.17 127.26 124.02 128.49L261.72 325.65C286.65 328.64 594.9 365.83 691.15 386.75L851.71 337.41C885.15 329.06 920.89 355.12 937.61 383.88L1053.7 583.6C1065.23 603.43 1071.32 626.04 1071.32 648.98C1071.32 720.72 1012.95 779.08 941.21 779.08ZM692.08 768.1L855.21 771.98H941.21C1009.03 771.98 1064.21 716.8 1064.21 648.98C1064.21 627.29 1058.45 605.92 1047.55 587.18L931.48 387.45C916.06 360.92 883.54 336.81 853.62 344.25L692.35 393.82C691.77 394 691.15 394.03 690.55 393.89C592.16 372.31 262.62 332.92 259.31 332.52C258.3 332.4 257.4 331.86 256.82 331.02L119.63 134.6L20.61 161.2L103.86 337.83L104.61 339.07C156.91 427.41 170.97 451.16 234.19 465.74L610.48 585.5C611.45 585.81 612.24 586.52 612.65 587.46L692.08 768.1Z" fill="#262626"/>
<path d="M284.48 715.55C302.16 716.1 318.04 708.46 328.71 696.18C330.96 693.59 334.21 692.11 337.64 692.11H337.87C344.79 692.11 350.39 697.7 350.39 704.59V777.36H534.7C563.36 777.36 586.59 754.13 586.59 725.47V541.16H350.39V613.93C350.39 620.82 344.8 626.41 337.91 626.41C334.27 626.41 330.87 624.78 328.46 622.06C318.15 610.36 303.08 602.95 286.26 602.95C254.25 602.95 228.47 629.66 230.01 662.01C231.39 691 255.47 714.65 284.48 715.55Z" fill="#A3A3A3"/>
<path d="M524.781 606.29C525.321 588.7 517.771 572.89 505.601 562.22C502.901 559.86 501.351 556.46 501.351 552.87V552.86C501.351 545.97 506.941 540.38 513.831 540.38H586.601V356.06C586.601 327.4 563.371 304.16 534.711 304.16H350.391V540.37H423.161C430.051 540.37 435.641 545.96 435.641 552.85C435.641 556.49 434.011 559.89 431.291 562.3C419.591 572.61 412.181 587.68 412.181 604.5C412.181 636.51 438.891 662.29 471.241 660.75C500.231 659.38 523.891 635.3 524.781 606.29Z" fill="#262626"/>
<path d="M302.12 177.14C284.44 176.59 268.56 184.23 257.89 196.51C255.64 199.1 252.39 200.58 248.96 200.58H248.73C241.81 200.58 236.21 194.99 236.21 188.1V115.33H51.89C23.23 115.32 0 138.56 0 167.22V351.53H76.99C81.8 349.79 85.26 345.23 85.26 339.83V339.82C85.26 336.23 83.7 332.84 81.01 330.47C68.84 319.8 61.28 303.99 61.83 286.4C62.73 257.39 86.38 233.31 115.37 231.93C147.72 230.39 174.43 256.17 174.43 288.18C174.43 304.81 167.2 319.71 155.74 330.01C153.36 332.15 151.52 334.91 151.09 338.08C150.25 344.23 153.92 349.61 159.24 351.53H236.23V279.38C236.23 273.93 239.45 268.77 244.6 266.98C249.67 265.22 254.87 266.88 258.17 270.63C268.48 282.33 283.55 289.74 300.37 289.74C332.38 289.74 358.15 263.03 356.62 230.68C355.22 201.69 331.13 178.04 302.12 177.14Z" fill="#A3A3A3"/>
<path d="M175.999 475.25C175.449 492.93 183.089 508.81 195.369 519.48C197.959 521.73 199.439 524.98 199.439 528.41V528.64C199.439 535.56 193.849 541.16 186.959 541.16H114.189V725.47C114.189 754.13 137.419 777.36 166.089 777.36H350.399V541.16H277.629C270.739 541.16 265.149 535.57 265.149 528.68C265.149 525.04 266.779 521.64 269.499 519.23C281.199 508.92 288.609 493.85 288.609 477.03C288.609 445.02 261.899 419.24 229.549 420.78C200.549 422.15 176.899 446.24 175.999 475.25Z" fill="#262626"/>
<path d="M93.5896 152.94L51.0296 98.2299C51.0296 98.2299 -5.25036 84.3699 39.0896 51.5899C83.4296 18.8099 160.26 -17.4001 192.68 16.5799C225.1 50.5599 240.87 125.17 240.87 125.17C240.87 125.17 216.1 149.37 202.85 127.19C184.7 96.7899 176.29 81.2999 176.29 81.2999L207.98 162.52C207.98 162.52 192.31 173.96 174.5 175.53C156.7 177.11 130.69 187.32 93.5896 152.94Z" fill="#FAFAFA"/>
<path d="M218.669 139.92C218.219 139.92 217.779 139.91 217.329 139.87C211.269 139.47 206.079 136.41 201.919 130.78C196.179 123.02 190.969 111.34 185.929 100.04C178.799 84.06 170.709 65.94 162.469 63.42C160.589 62.85 159.539 60.86 160.109 58.99C160.679 57.11 162.669 56.04 164.549 56.63C175.889 60.09 183.919 78.09 192.419 97.15C197.309 108.1 202.359 119.42 207.639 126.56C210.539 130.48 213.859 132.51 217.789 132.78C225.689 133.31 233.929 126.7 237.029 123.91C234.869 112.23 221.759 47.92 190.279 19.21C152.479 -15.29 73.3593 32.41 41.0893 54.52C39.4793 55.63 37.2593 55.21 36.1493 53.6C35.0393 51.98 35.4493 49.77 37.0693 48.66C134.479 -18.08 177.869 -1.72997 195.059 13.96C231.419 47.13 243.849 121.46 244.359 124.61C244.539 125.72 244.189 126.84 243.409 127.65C242.919 128.16 231.389 139.92 218.669 139.92Z" fill="#262626"/>
<path d="M188 177.06C183.94 177.06 179.73 175.86 175.59 172.84C174 171.68 173.65 169.46 174.81 167.88C175.97 166.3 178.19 165.95 179.77 167.1C190.33 174.79 201.25 164.93 205.09 160.82L145 32.9402C144.17 31.1602 144.93 29.0502 146.71 28.2102C148.48 27.3702 150.6 28.1302 151.44 29.9102L212.52 159.88C213.09 161.1 212.93 162.53 212.09 163.59C207.63 169.25 198.33 177.06 188 177.06Z" fill="#262626"/>
<path d="M159.48 184.9C152.71 184.9 145.74 183.16 140.91 177.51C130.07 164.82 76.0699 77.5799 73.7799 73.8699C72.7499 72.1999 73.2599 70.0099 74.9299 68.9799C76.5999 67.9499 78.7899 68.4599 79.8199 70.1299C80.3799 71.0399 135.82 160.61 146.31 172.89C152.98 180.7 167.46 177.32 174.26 175.16L107.46 49.3199C106.54 47.5899 107.2 45.4399 108.93 44.5199C110.66 43.5799 112.81 44.2499 113.73 45.9899L182.46 175.46C182.93 176.34 183 177.37 182.67 178.3C182.34 179.24 181.63 179.99 180.72 180.38C180.04 180.68 170.01 184.9 159.48 184.9Z" fill="#262626"/>
<path d="M132.87 179.44C91.8595 179.44 49.8895 102.67 47.9695 99.1201C47.0395 97.3901 47.6795 95.2401 49.4095 94.3001C51.1295 93.3801 53.2895 94.0101 54.2195 95.7401C54.3395 95.9701 66.6595 118.63 83.8195 139.17C99.1095 157.48 121.45 177.86 141.03 170.93C142.89 170.3 144.91 171.25 145.56 173.1C146.21 174.95 145.24 176.98 143.39 177.63C139.91 178.87 136.39 179.44 132.87 179.44Z" fill="#262626"/>
<path d="M1054.97 396.04C1053.97 396.04 1052.97 395.62 1052.27 394.8C1050.99 393.31 1051.16 391.07 1052.66 389.79C1061.36 382.33 1059.5 357.96 1048.34 333.11C1035.34 304.17 1009.75 274.84 976.83 279.32C945.39 283.6 920.95 279.15 904.18 266.06C886.35 252.14 884.11 233.52 884.02 232.73C874.74 148.74 798.94 87.95 714.88 97.24C712.93 97.47 711.17 96.05 710.96 94.1C710.74 92.15 712.15 90.39 714.1 90.18C801.94 80.53 881.37 144.08 891.08 231.96C891.1 232.12 893.05 248.37 908.54 260.47C923.73 272.33 946.38 276.3 975.86 272.29C1012.61 267.3 1040.76 298.92 1054.81 330.21C1065.29 353.54 1070.53 383.83 1057.27 395.2C1056.61 395.75 1055.79 396.04 1054.97 396.04Z" fill="#262626"/>
<path d="M701.97 127.23L768.04 127.58C791.36 127.7 810.35 146.89 810.22 170.21L810.05 201.89C810 211.68 808.66 221.18 806.22 230.23C828.08 230.43 845.68 248.26 845.56 270.14C845.44 292.07 827.57 309.75 805.64 309.64C792.75 309.57 781.36 303.34 774.16 293.78L804.24 356.99L826.41 350.53C835.45 352.49 835.75 358.32 836.99 370.71C836.99 370.71 840.56 469.29 758.13 485.53C679.99 500.92 684.96 406.98 701.5 386.93L722.84 380.71C720.13 377.11 717.74 373.18 715.72 368.95L689.14 313.09L681.53 313.05C643.95 312.85 613.36 281.94 613.56 244.36L613.72 214.54C613.98 166.26 653.69 126.97 701.97 127.23Z" fill="#FAFAFA"/>
<path d="M741.871 490.78C717.571 490.78 704.581 478.5 697.741 467.03C681.721 440.17 687.311 398.55 698.751 384.67C699.201 384.12 699.811 383.72 700.501 383.52L717.091 378.69C715.391 376.05 713.851 373.31 712.511 370.48L686.891 316.64L681.511 316.61C641.881 316.4 609.811 283.98 610.011 244.35L610.171 214.53C610.301 190.23 619.951 167.37 637.341 150.16C654.611 133.07 677.381 123.68 701.491 123.68C701.661 123.68 701.821 123.68 701.991 123.68L768.051 124.03C780.281 124.1 791.791 128.95 800.441 137.7C809.101 146.45 813.831 158 813.771 170.23L813.601 201.91C813.551 210.33 812.581 218.74 810.701 226.95C832.371 229.38 849.241 247.91 849.111 270.17C848.981 294.02 829.401 313.33 805.621 313.2C798.141 313.16 790.991 311.23 784.701 307.69L806.141 352.74L825.411 347.13C825.981 346.97 826.571 346.95 827.151 347.07C838.451 349.52 839.221 357.37 840.401 369.25L840.511 370.36C840.561 371.6 843.231 472.39 758.801 489.02C752.631 490.23 747.001 490.78 741.871 490.78ZM703.601 390.02C695.081 401.81 689.461 439.28 703.851 463.4C714.191 480.74 732.211 487.01 757.451 482.05C835.901 466.6 833.581 374.75 833.451 370.85L833.351 369.96C832.171 358.03 831.551 355.52 826.521 354.22L805.241 360.42C803.571 360.92 801.791 360.11 801.041 358.54L770.971 295.33C770.191 293.68 770.781 291.71 772.341 290.76C773.891 289.81 775.921 290.2 777.021 291.66C783.901 300.78 794.341 306.04 805.691 306.11C805.751 306.11 805.821 306.11 805.881 306.11C825.731 306.11 841.931 290.02 842.041 270.15C842.151 250.3 826.081 233.99 806.221 233.81C805.121 233.8 804.091 233.28 803.421 232.41C802.761 231.54 802.541 230.4 802.821 229.34C805.231 220.39 806.481 211.15 806.531 201.9L806.701 170.22C806.761 159.89 802.751 150.12 795.431 142.72C788.111 135.32 778.381 131.21 768.051 131.16L701.991 130.81C702.011 130.87 701.681 130.81 701.521 130.81C679.291 130.81 658.301 139.47 642.361 155.24C626.321 171.11 617.421 192.19 617.301 214.59L617.141 244.41C616.951 280.13 645.851 309.34 681.571 309.53L689.181 309.57C690.541 309.58 691.781 310.36 692.371 311.6L718.951 367.45C720.811 371.37 723.091 375.12 725.701 378.6C726.401 379.53 726.601 380.75 726.231 381.85C725.861 382.96 724.971 383.81 723.851 384.14L703.601 390.02Z" fill="#262626"/>
<path d="M704.82 316.23C704.63 316.23 704.44 316.23 704.25 316.23L650.7 315.95C648.92 315.94 647.48 314.49 647.49 312.7C647.5 310.92 648.94 309.49 650.72 309.49C650.73 309.49 650.73 309.49 650.74 309.49L704.29 309.77C714.82 309.7 725.19 308.24 735.14 305.06C736.85 304.52 738.66 305.46 739.2 307.15C739.74 308.85 738.81 310.67 737.11 311.21C726.68 314.54 715.82 316.23 704.82 316.23Z" fill="#262626"/>
<path d="M736.18 82.5098C811.45 92.4798 869.74 155.76 872.09 233.03C855.04 244.22 834.36 250.74 812.07 250.63C754.15 250.32 707.44 205.4 707.73 150.29C707.87 124.04 718.67 100.23 736.18 82.5098Z" fill="#262626"/>
<path d="M790.409 272.02C790.179 272.02 789.939 272 789.699 271.94C787.959 271.55 786.869 269.83 787.249 268.09C787.399 267.39 791.229 250.75 806.049 245.42C807.719 244.8 809.579 245.69 810.179 247.37C810.789 249.05 809.909 250.9 808.229 251.5C796.809 255.61 793.589 269.35 793.559 269.49C793.219 271 791.879 272.02 790.409 272.02Z" fill="#262626"/>
<path d="M701 219.32C699.84 224.51 696.22 228.11 692.92 227.37C689.62 226.63 687.88 221.83 689.05 216.64C690.21 211.45 693.83 207.85 697.13 208.59C700.43 209.33 702.16 214.13 701 219.32Z" fill="#262626"/>
<path d="M643 215.39C641.84 220.58 638.22 224.18 634.92 223.44C631.62 222.7 629.88 217.9 631.05 212.71C632.21 207.52 635.83 203.92 639.13 204.66C642.43 205.39 644.16 210.2 643 215.39Z" fill="#262626"/>
<path d="M716.291 201.69C715.401 201.69 714.521 201.33 713.881 200.61C705.531 191.25 691.121 193.48 690.971 193.5C689.201 193.76 687.551 192.59 687.261 190.84C686.971 189.08 688.151 187.42 689.911 187.12C690.641 187 707.941 184.25 718.701 196.31C719.891 197.64 719.771 199.68 718.441 200.87C717.831 201.42 717.061 201.69 716.291 201.69Z" fill="#262626"/>
<path d="M668.32 283.24C655.08 283.24 642.29 268.47 641.7 267.78C640.96 266.91 640.73 265.72 641.1 264.63C641.47 263.54 642.38 262.74 643.5 262.51L686.19 253.71C687.28 253.49 688.38 253.83 689.15 254.62C689.92 255.41 690.24 256.53 689.99 257.6C686.62 272.24 680.66 280.7 672.28 282.76C670.97 283.09 669.64 283.24 668.32 283.24ZM650.62 267.65C655.85 272.42 664.12 278.13 670.76 276.49C676.6 275.05 680.2 268.09 682.38 261.11L650.62 267.65Z" fill="#262626"/>
<path d="M645.51 237.81C644.26 237.81 643.07 237.08 642.54 235.86C641.83 234.22 642.59 232.32 644.22 231.61C653.96 227.4 657.94 214.86 653.09 203.65C650.71 198.16 646.61 193.82 641.53 191.44C636.59 189.13 631.3 188.96 626.65 190.97C625.01 191.67 623.11 190.92 622.4 189.29C621.69 187.65 622.45 185.75 624.08 185.04C630.46 182.28 637.62 182.48 644.26 185.59C650.78 188.64 656.01 194.14 659.02 201.09C665.28 215.57 659.79 231.92 646.78 237.54C646.38 237.72 645.94 237.81 645.51 237.81Z" fill="#262626"/>
<path d="M713.219 655.66L615.429 565.4L548.589 554.56C540.229 554.37 535.069 563.61 539.609 570.63C546.089 580.64 555.729 588.21 566.989 592.13L592.859 601.13L615.429 623.7L557.129 616.18L506.029 636.62C503.449 637.65 502.669 640.94 504.519 643.02C511.669 651.07 521.919 655.67 532.689 655.67L516.329 665.03C512.689 667.11 512.119 672.12 515.189 674.96C516.489 676.7 518.019 678.21 519.709 679.53C527.659 685.71 538.519 686.62 547.809 682.76L564.109 675.53L588.919 684.59L543.709 709.5C539.239 712.08 539.709 718.67 544.499 720.59C555.209 724.87 566.909 726.02 578.239 723.89L590.979 721.5L677.479 776.03L869.289 777.91L859.889 644.39L713.219 655.66Z" fill="#FAFAFA"/>
<path d="M869.3 781.45C869.29 781.45 869.28 781.45 869.27 781.45L677.46 779.57C676.8 779.56 676.16 779.37 675.6 779.02L590.27 725.23L578.9 727.36C566.88 729.62 554.53 728.41 543.18 723.87C539.69 722.48 537.36 719.28 537.09 715.53C536.82 711.78 538.68 708.28 541.93 706.41L580.36 685.24L564.24 679.36L549.25 686.01C538.36 690.53 526.24 689.11 517.52 682.34C515.6 680.85 513.92 679.17 512.52 677.34C510.38 675.22 509.36 672.32 509.7 669.31C510.06 666.19 511.82 663.51 514.55 661.95L521.84 657.78C514.19 655.7 507.22 651.42 501.85 645.39C500.21 643.55 499.57 641.02 500.14 638.62C500.71 636.23 502.41 634.25 504.69 633.33L555.8 612.89C556.36 612.67 556.97 612.6 557.57 612.66L605.53 618.85L590.91 604.23L565.81 595.5C553.86 591.34 543.49 583.2 536.61 572.58C533.79 568.22 533.62 562.7 536.14 558.18C538.67 553.66 543.46 550.96 548.65 551.03C548.81 551.03 548.98 551.05 549.14 551.08L616 561.89C616.69 562 617.33 562.31 617.84 562.79L714.49 652L859.62 640.84C860.59 640.76 861.5 641.08 862.22 641.69C862.93 642.31 863.37 643.19 863.44 644.13L872.84 777.65C872.91 778.64 872.57 779.61 871.89 780.34C871.21 781.05 870.28 781.45 869.3 781.45ZM678.53 772.47L865.49 774.31L856.61 648.2L713.5 659.21C712.5 659.29 711.54 658.95 710.82 658.28L613.82 568.74L548.3 558.12C545.81 558.14 543.6 559.44 542.38 561.63C541.12 563.89 541.2 566.54 542.61 568.71C548.63 578.01 557.71 585.14 568.17 588.78L594.04 597.78C594.55 597.96 595.01 598.25 595.39 598.62L617.96 621.19C619.04 622.27 619.31 623.9 618.64 625.27C617.97 626.63 616.54 627.4 615 627.23L557.62 619.83L507.37 639.93C507.31 639.95 507.15 640.02 507.09 640.25C507.05 640.41 507.09 640.55 507.2 640.67C513.67 647.95 522.97 652.13 532.71 652.13C534.32 652.13 535.73 653.21 536.14 654.77C536.55 656.33 535.87 657.97 534.47 658.77L518.11 668.13C517.37 668.55 516.89 669.28 516.79 670.13C516.69 670.98 516.99 671.8 517.62 672.37C517.78 672.52 517.92 672.68 518.05 672.85C519.11 674.27 520.41 675.57 521.91 676.74C528.61 681.95 538.02 683.02 546.47 679.49L562.7 672.29C563.54 671.92 564.5 671.89 565.36 672.2L590.17 681.25C591.48 681.73 592.39 682.93 592.49 684.31C592.6 685.7 591.88 687.02 590.66 687.7L545.45 712.61C544.23 713.32 544.17 714.54 544.2 715.03C544.23 715.53 544.47 716.73 545.84 717.28C555.93 721.31 566.91 722.39 577.6 720.39L590.34 718C591.22 717.82 592.13 718.01 592.89 718.49L678.53 772.47Z" fill="#262626"/>
<path d="M532.69 659.22C531.41 659.22 530.16 658.52 529.53 657.3C528.63 655.56 529.31 653.41 531.05 652.51L556.44 639.35C557.15 638.98 557.97 638.87 558.77 639.02L624.59 652.18C626.51 652.57 627.76 654.44 627.38 656.36C626.99 658.29 625.14 659.55 623.2 659.15L558.61 646.23L534.33 658.82C533.8 659.09 533.24 659.22 532.69 659.22Z" fill="#262626"/>
<path d="M619.19 697.77C618.81 697.77 618.42 697.71 618.04 697.58L563.36 678.88C561.5 678.25 560.51 676.23 561.15 674.37C561.79 672.51 563.82 671.53 565.66 672.16L620.34 690.86C622.2 691.49 623.19 693.51 622.55 695.37C622.05 696.84 620.67 697.77 619.19 697.77Z" fill="#262626"/>
<path d="M932.797 634.997L859.602 640.867L860.17 647.954L933.365 642.085L932.797 634.997Z" fill="#262626"/>
<path d="M856.175 542.973L849.352 544.971L877.705 641.836L884.528 639.839L856.175 542.973Z" fill="#262626"/>
<path d="M8.66004 141.19C6.77004 141.19 5.20004 139.7 5.11004 137.79C3.79004 108.03 8.26005 68.4 37.08 48.66C134.49 -18.08 177.88 -1.72997 195.07 13.96C231.43 47.13 243.86 121.46 244.37 124.61C244.55 125.72 244.2 126.84 243.42 127.65C242.9 128.19 230.57 140.74 217.34 139.88C211.28 139.48 206.09 136.42 201.93 130.79C196.19 123.03 190.98 111.35 185.94 100.05C178.81 84.07 170.72 65.95 162.48 63.43C160.6 62.86 159.55 60.87 160.12 59C160.69 57.12 162.68 56.05 164.56 56.64C175.9 60.1 183.93 78.1 192.43 97.16C197.32 108.11 202.37 119.43 207.65 126.57C210.55 130.49 213.87 132.52 217.8 132.79C225.68 133.31 233.94 126.71 237.04 123.92C234.88 112.24 221.77 47.93 190.29 19.21C152.48 -15.28 73.36 32.41 41.1 54.52C14.97 72.42 10.97 109.51 12.21 137.48C12.3 139.44 10.78 141.1 8.82004 141.18C8.76004 141.19 8.71004 141.19 8.66004 141.19Z" fill="#262626"/>
</svg>
