<svg width="958" height="863" viewBox="0 0 958 863" fill="none" xmlns="http://www.w3.org/2000/svg">
<path d="M670.387 858.497H143.017C71.5475 858.497 11.0475 805.737 1.32745 734.927C-3.70255 698.247 5.67745 661.047 27.5075 631.147L121.957 501.797C144.207 471.317 176.887 450.087 213.777 442.127L337.257 415.497L510.917 475.747L670.387 858.497Z" fill="#262626"/>
<path d="M765.127 387.35L730.085 398.943L785.89 567.632L820.932 556.039L765.127 387.35Z" fill="#FAFAFA"/>
<path d="M785.888 571.147C785.338 571.147 784.788 571.017 784.288 570.767C783.448 570.347 782.808 569.597 782.508 568.707L726.698 400.027C726.078 398.167 727.088 396.157 728.958 395.537L763.998 383.947C764.888 383.657 765.868 383.727 766.708 384.147C767.548 384.567 768.188 385.307 768.488 386.207L824.298 554.887C824.918 556.747 823.908 558.767 822.038 559.377L786.998 570.967C786.638 571.097 786.268 571.147 785.888 571.147ZM734.568 401.167L788.148 563.107L816.438 553.747L762.858 391.807L734.568 401.167Z" fill="#262626"/>
<path d="M379.287 341.067L336.467 337.517C287.247 333.437 250.317 289.827 254.397 240.607L255.807 223.637C260.917 162.007 315.527 115.767 377.157 120.877L380.437 138.227C419.067 141.437 448.057 175.667 444.847 214.297L438.487 290.927C436.007 320.997 409.357 343.557 379.287 341.067Z" fill="#262626"/>
<path d="M459.636 278.612C478.206 229.725 451.064 174.065 399.011 154.292C346.959 134.519 289.708 158.121 271.137 207.008C252.567 255.896 279.709 311.556 331.761 331.329C383.814 351.102 441.065 327.5 459.636 278.612Z" fill="#262626"/>
<path d="M336.817 246.547C342.147 214.657 366.487 187.847 397.217 182.947C416.377 179.897 434.187 185.977 447.157 198.137C438.617 195.817 414.237 190.677 403.927 204.167C391.337 220.687 377.177 255.937 336.817 246.547Z" fill="#262626"/>
<path d="M480.456 238.775C499.357 222.571 501.543 194.111 485.338 175.21C469.133 156.309 440.673 154.123 421.772 170.328C402.871 186.533 400.685 214.992 416.89 233.893C433.095 252.795 461.554 254.98 480.456 238.775Z" fill="#262626"/>
<path d="M358.128 133.317C309.018 135.457 267.818 172.947 261.908 222.647C272.268 230.837 285.238 236.217 299.618 237.417C336.988 240.517 369.668 214.207 372.618 178.657C374.008 161.717 368.408 145.747 358.128 133.317Z" fill="#262626"/>
<path d="M405.22 200.254C424.122 184.049 426.307 155.59 410.102 136.688C393.897 117.787 365.438 115.601 346.537 131.806C327.636 148.011 325.45 176.47 341.655 195.372C357.86 214.273 386.319 216.459 405.22 200.254Z" fill="#262626"/>
<path d="M473.008 176.357C470.888 201.877 448.488 220.847 422.968 218.737C397.448 216.617 378.478 194.217 380.588 168.697C382.708 143.177 405.108 124.207 430.628 126.317C456.148 128.427 475.118 150.837 473.008 176.357Z" fill="#262626"/>
<path d="M306.607 165.277C304.937 165.277 303.447 164.097 303.117 162.387C300.797 150.267 286.667 145.987 286.527 145.947C284.647 145.397 283.567 143.427 284.107 141.547C284.647 139.667 286.617 138.577 288.497 139.127C289.247 139.337 306.947 144.607 310.097 161.057C310.467 162.987 309.197 164.837 307.277 165.217C307.047 165.247 306.827 165.277 306.607 165.277Z" fill="#262626"/>
<path d="M308.507 164.327C307.757 164.327 306.997 164.087 306.357 163.597C293.047 153.427 296.247 135.237 296.397 134.467C296.757 132.537 298.587 131.257 300.537 131.627C302.467 131.987 303.737 133.837 303.387 135.757C303.357 135.907 300.867 150.457 310.677 157.947C312.237 159.137 312.537 161.367 311.347 162.927C310.637 163.847 309.577 164.327 308.507 164.327Z" fill="#262626"/>
<path d="M480.448 257.967L479.598 250.277C475.348 211.817 440.728 184.087 402.268 188.337C369.828 191.917 345.028 217.107 340.598 247.987C327.378 246.987 314.888 255.427 311.258 268.687C308.098 280.247 312.628 292.077 321.708 298.797L272.358 428.707L240.638 439.587C239.798 466.167 252.698 496.637 277.608 520.597C317.188 558.657 372.038 565.847 400.128 536.647C422.098 513.807 421.088 475.487 400.698 441.657L388.598 438.197L406.268 391.687C412.268 392.627 418.468 392.867 424.788 392.167C463.248 387.917 490.978 353.297 486.728 314.837L483.768 288.017C491.238 286.357 496.468 279.397 495.668 271.607C494.858 263.737 488.198 257.957 480.448 257.967Z" fill="#FAFAFA"/>
<path d="M354.478 558.067C328.318 558.067 298.978 546.067 275.148 523.157C250.418 499.377 236.188 468.087 237.088 439.487C237.138 438.007 238.088 436.717 239.488 436.237L269.638 425.897L317.488 299.947C308.388 291.947 304.608 279.597 307.848 267.757C311.568 254.167 323.788 244.747 337.608 244.367C343.538 212.657 369.548 188.377 401.888 184.807C421.448 182.657 440.648 188.227 455.988 200.527C471.338 212.817 480.978 230.347 483.128 249.897L483.658 254.697C491.878 256.077 498.318 262.737 499.198 271.257C500.058 279.637 495.218 287.427 487.618 290.537L490.258 314.467C492.418 334.007 486.838 353.227 474.538 368.567C462.248 383.907 444.708 393.557 425.168 395.707C419.778 396.297 414.208 396.267 408.568 395.597L393.278 435.847L401.658 438.247C402.518 438.497 403.258 439.057 403.728 439.827C425.488 475.927 425.058 515.827 402.678 539.107C390.408 551.887 373.258 558.067 354.478 558.067ZM244.158 442.147C244.178 468.117 257.478 496.307 280.078 518.037C318.178 554.677 370.888 561.927 397.568 534.187C417.458 513.507 417.728 477.677 398.368 444.687L387.628 441.607C386.668 441.337 385.878 440.677 385.428 439.787C384.978 438.897 384.928 437.857 385.278 436.927L402.938 390.427C403.538 388.857 405.138 387.907 406.808 388.177C412.798 389.107 418.718 389.257 424.398 388.637C442.058 386.687 457.898 377.977 468.998 364.117C480.108 350.247 485.148 332.887 483.198 315.237L480.238 288.417C480.038 286.617 481.228 284.957 482.998 284.557C488.808 283.267 492.738 277.857 492.138 271.977C491.518 266.017 486.508 261.527 480.468 261.527C480.458 261.527 480.458 261.527 480.448 261.527C478.638 261.527 477.118 260.167 476.918 258.367L476.068 250.677C472.038 214.227 439.098 187.827 402.668 191.877C372.498 195.207 348.418 218.497 344.128 248.507C343.868 250.357 342.198 251.697 340.348 251.547C328.568 250.657 317.818 258.267 314.708 269.647C312.008 279.527 315.598 289.857 323.838 295.967C325.118 296.917 325.608 298.597 325.048 300.087L275.698 429.997C275.328 430.987 274.528 431.757 273.528 432.097L244.158 442.147Z" fill="#262626"/>
<path d="M330.398 307.227C330.088 307.227 329.778 307.187 329.458 307.097C312.558 302.477 302.558 284.967 307.178 268.057C307.698 266.167 309.648 265.057 311.538 265.567C313.428 266.087 314.548 268.037 314.028 269.927C310.438 283.047 318.198 296.647 331.328 300.237C333.218 300.757 334.338 302.707 333.818 304.597C333.388 306.187 331.958 307.227 330.398 307.227Z" fill="#262626"/>
<path d="M340.678 288.267C340.508 288.267 340.338 288.257 340.168 288.237C338.228 287.957 336.878 286.157 337.158 284.217C338.498 274.907 330.758 270.377 330.678 270.337C328.978 269.367 328.378 267.197 329.348 265.487C330.318 263.777 332.488 263.187 334.198 264.157C334.688 264.437 346.208 271.177 344.188 285.227C343.938 286.997 342.418 288.267 340.678 288.267Z" fill="#262626"/>
<path d="M461.627 302.007C455.857 302.007 448.537 299.177 442.887 289.207C441.917 287.497 442.517 285.327 444.227 284.367C445.937 283.407 448.097 283.997 449.067 285.707C456.047 298.027 464.497 294.557 465.437 294.117C467.197 293.297 469.317 294.037 470.157 295.797C470.997 297.557 470.287 299.647 468.537 300.507C466.837 301.357 464.417 302.007 461.627 302.007Z" fill="#262626"/>
<path d="M462.597 258.377C462.407 262.297 459.627 265.347 456.387 265.197C453.147 265.047 450.667 261.737 450.857 257.817C451.047 253.897 453.827 250.847 457.067 250.997C460.307 251.157 462.787 254.457 462.597 258.377Z" fill="#262626"/>
<path d="M456.548 233.867C457.558 236.107 453.338 240.187 447.128 242.977C440.918 245.767 435.068 246.207 434.058 243.967C433.048 241.727 437.268 237.647 443.478 234.857C449.688 232.067 455.538 231.627 456.548 233.867Z" fill="#262626"/>
<path d="M379.597 191.507C351.407 190.127 325.877 209.377 319.857 237.467C325.347 242.697 332.467 246.467 340.627 247.907C361.827 251.657 381.897 238.357 385.467 218.187C387.177 208.587 384.817 199.157 379.597 191.507Z" fill="#262626"/>
<path d="M407.308 395.607C407.098 395.607 406.888 395.587 406.678 395.547C374.858 389.817 350.148 363.347 346.588 331.167C346.368 329.217 347.778 327.457 349.728 327.247C351.648 327.077 353.438 328.437 353.648 330.387C356.858 359.447 379.178 383.377 407.928 388.547C409.858 388.897 411.138 390.747 410.798 392.677C410.488 394.397 408.988 395.607 407.308 395.607Z" fill="#262626"/>
<path d="M358.857 353.397C357.437 350.707 356.177 347.977 355.057 345.217C354.107 377.897 370.437 407.107 395.827 424.007L406.567 395.737C386.597 387.897 369.457 373.437 358.857 353.397Z" fill="#262626"/>
<path d="M758.267 603.327C762.177 575.577 755.747 547.357 740.197 524.037L731.257 510.627L766.477 487.147C780.017 478.117 788.557 463.287 789.577 447.047C789.947 441.147 784.407 436.637 778.707 438.187L707.957 457.477C680.287 465.027 661.787 491.037 663.737 519.647L667.467 574.407L741.267 858.487H819.797H953.907L822.777 656.487L847.047 646.447C872.897 641.147 895.887 626.497 911.617 605.297L920.277 594.497L890.117 475.347L779.067 489.527L758.267 603.327Z" fill="#FAFAFA"/>
<path d="M953.908 862.047H741.268C739.648 862.047 738.238 860.957 737.828 859.387L664.028 575.307C663.968 575.097 663.938 574.877 663.918 574.657L660.188 519.897C658.128 489.707 677.828 462.017 707.018 454.057L777.768 434.757C781.598 433.697 785.578 434.557 788.658 437.067C791.738 439.577 793.368 443.297 793.118 447.267C792.038 464.507 782.818 480.517 768.448 490.097L736.188 511.607L743.158 522.067C759.208 546.137 765.818 575.167 761.788 603.827C761.518 605.767 759.698 607.127 757.778 606.847C755.838 606.577 754.478 604.777 754.758 602.837C758.548 575.917 752.338 548.627 737.258 526.017L728.318 512.607C727.228 510.977 727.668 508.767 729.308 507.677L764.528 484.197C777.068 475.837 785.108 461.867 786.048 446.827C786.148 445.177 785.478 443.627 784.188 442.577C782.898 441.537 781.248 441.177 779.658 441.617L708.908 460.917C682.968 467.987 665.468 492.597 667.298 519.417L671.008 573.847L744.038 854.947H947.388L819.798 658.427C819.228 657.537 819.068 656.447 819.388 655.437C819.698 654.427 820.448 653.617 821.418 653.207L845.688 643.167C845.898 643.077 846.108 643.017 846.328 642.967C871.358 637.837 893.528 623.707 908.758 603.187L916.388 593.667L887.438 479.277L779.508 493.057C777.578 493.297 775.778 491.927 775.538 489.987C775.288 488.037 776.668 486.257 778.618 486.007L889.668 471.827C891.408 471.607 893.118 472.737 893.558 474.477L923.718 593.627C923.988 594.707 923.738 595.847 923.048 596.717L914.388 607.517C898.268 629.247 874.708 644.307 848.098 649.847L828.088 658.127L956.888 856.547C957.598 857.637 957.648 859.037 957.028 860.177C956.408 861.337 955.208 862.047 953.908 862.047Z" fill="#262626"/>
<path d="M826.617 609.767L813.388 614.147C792.548 621.047 770.067 609.737 763.167 588.897L713.958 440.157L802.648 410.807L851.857 559.547C858.757 580.387 847.457 602.877 826.617 609.767Z" fill="#262626"/>
<path d="M741.363 399.503C798.861 377.059 814.555 279.659 776.417 181.955C738.278 84.2502 660.749 23.2396 603.251 45.6838C545.753 68.1279 530.059 165.528 568.198 263.232C606.336 360.937 683.865 421.947 741.363 399.503Z" fill="#262626"/>
<path d="M716.087 407.707C693.597 407.707 669.247 398.017 645.317 379.187C612.117 353.067 583.547 312.337 564.877 264.497C546.207 216.667 539.617 167.357 546.337 125.647C553.167 83.2667 572.917 53.6767 601.947 42.3467C630.977 31.0267 665.547 39.3967 699.287 65.9367C732.487 92.0567 761.047 132.787 779.727 180.627C818.517 279.997 801.887 379.657 742.657 402.777C734.217 406.077 725.297 407.707 716.087 407.707ZM628.517 44.5367C620.167 44.5367 612.127 45.9967 604.537 48.9667C577.947 59.3467 559.777 86.9767 553.357 126.777C546.837 167.247 553.277 215.237 571.497 261.917C589.717 308.587 617.497 348.257 649.707 373.607C681.387 398.527 713.477 406.547 740.067 396.167C795.647 374.467 810.467 278.947 773.107 183.217C754.887 136.547 727.117 96.8767 694.897 71.5267C672.257 53.7167 649.417 44.5367 628.517 44.5367Z" fill="#262626"/>
<path d="M763.234 391.484C816.524 370.682 828.806 274.614 790.668 176.91C752.529 79.2052 678.412 16.8629 625.122 37.6643C571.833 58.4657 559.55 154.534 597.689 252.238C635.827 349.943 709.945 412.285 763.234 391.484Z" fill="#FAFAFA"/>
<path d="M741.418 399.037C719.798 399.037 696.038 388.807 672.488 368.997C640.778 342.327 613.028 301.307 594.368 253.507C575.708 205.707 568.328 156.747 573.588 115.637C578.938 73.7566 596.788 44.8866 623.828 34.3266C650.868 23.7766 683.558 32.9266 715.858 60.0966C747.568 86.7666 775.318 127.787 793.978 175.587C812.638 223.387 820.018 272.347 814.758 313.457C809.408 355.337 791.568 384.207 764.528 394.767C757.198 397.627 749.458 399.037 741.418 399.037ZM646.928 37.1666C639.758 37.1666 632.888 38.4166 626.408 40.9466C601.898 50.5066 585.648 77.3566 580.638 116.537C575.528 156.487 582.758 204.207 600.998 250.927C619.228 297.637 646.248 337.637 677.068 363.557C707.298 388.977 737.438 397.727 761.948 388.147C786.458 378.587 802.708 351.737 807.718 312.557C812.828 272.607 805.598 224.887 787.358 178.177C769.128 131.467 742.108 91.4666 711.288 65.5466C689.058 46.8366 666.868 37.1666 646.928 37.1666Z" fill="#262626"/>
<path d="M756.929 363.578C800.088 346.731 808.763 265.663 776.303 182.508C743.844 99.3529 682.543 45.5997 639.383 62.4469C596.224 79.2941 587.549 160.362 620.009 243.517C652.468 326.672 713.769 380.425 756.929 363.578Z" fill="#FAFAFA"/>
<path d="M740.477 370.137C697.807 370.137 645.657 318.957 616.707 244.787C600.807 204.047 594.097 162.477 597.807 127.717C601.617 92.1367 615.917 67.7767 638.087 59.1167C683.007 41.5967 746.487 96.3467 779.607 181.197C812.727 266.047 803.137 349.337 758.217 366.867C752.567 369.077 746.617 370.137 740.477 370.137ZM656.357 62.8467C650.917 62.8467 645.667 63.7867 640.677 65.7367C621.097 73.3767 608.387 95.6567 604.877 128.477C601.277 162.117 607.827 202.517 623.327 242.207C655.017 323.407 714.397 376.367 755.647 360.247C796.907 344.147 804.687 264.977 772.997 183.777C745.127 112.407 695.887 62.8467 656.357 62.8467Z" fill="#262626"/>
<path d="M667.467 574.417L663.737 519.657C661.787 491.047 680.287 465.027 707.957 457.487L778.707 438.197C784.407 436.637 789.947 441.157 789.577 447.057C788.567 463.297 780.017 478.137 766.477 487.157L731.257 510.637L740.197 524.047C755.747 547.367 762.177 575.587 758.267 603.337L667.467 574.417Z" fill="#FAFAFA"/>
<path d="M758.268 606.877C758.098 606.877 757.938 606.867 757.768 606.847C755.828 606.577 754.468 604.777 754.748 602.837C758.538 575.917 752.328 548.627 737.248 526.017L728.308 512.607C727.218 510.977 727.658 508.767 729.298 507.677L764.518 484.197C777.058 475.837 785.098 461.867 786.038 446.827C786.138 445.177 785.468 443.627 784.178 442.577C782.888 441.537 781.238 441.177 779.648 441.617L708.898 460.917C682.958 467.987 665.458 492.597 667.288 519.417L671.018 574.177C671.148 576.137 669.678 577.827 667.718 577.967C665.788 578.027 664.068 576.617 663.938 574.667L660.208 519.907C658.148 489.717 677.848 462.027 707.038 454.067L777.788 434.767C781.618 433.707 785.598 434.567 788.678 437.077C791.758 439.587 793.388 443.307 793.138 447.277C792.058 464.517 782.838 480.527 768.468 490.107L736.208 511.617L743.178 522.077C759.228 546.147 765.838 575.177 761.808 603.837C761.538 605.597 760.008 606.877 758.268 606.877Z" fill="#262626"/>
<path d="M894.298 514.227C887.378 514.227 880.488 511.357 875.568 505.737C867.798 496.867 847.218 491.477 839.018 490.387C825.408 488.577 815.838 476.067 817.658 462.457C819.468 448.847 831.968 439.277 845.598 441.097C850.178 441.707 890.948 447.787 913.008 472.997C922.048 483.327 921.008 499.047 910.668 508.087C905.938 512.207 900.108 514.227 894.298 514.227Z" fill="#FAFAFA"/>
<path d="M894.287 517.777C886.087 517.777 878.287 514.237 872.887 508.067C866.177 500.397 847.207 495.057 838.537 493.897C831.017 492.897 824.327 489.027 819.717 482.987C815.107 476.957 813.117 469.497 814.127 461.967C815.127 454.437 818.997 447.757 825.028 443.147C831.058 438.537 838.527 436.557 846.057 437.557C850.767 438.187 892.757 444.457 915.667 470.637C920.667 476.347 923.137 483.667 922.637 491.237C922.137 498.807 918.707 505.737 912.997 510.737C907.817 515.287 901.167 517.777 894.287 517.777ZM842.247 444.417C837.597 444.417 833.107 445.927 829.347 448.807C824.827 452.267 821.927 457.277 821.167 462.927C820.417 468.567 821.907 474.167 825.367 478.687C828.827 483.207 833.837 486.117 839.477 486.867C848.447 488.067 869.727 493.677 878.227 503.397C882.277 508.017 888.127 510.677 894.277 510.677C899.438 510.677 904.417 508.807 908.297 505.397C912.587 501.647 915.157 496.457 915.527 490.777C915.907 485.097 914.047 479.607 910.297 475.317C889.097 451.087 849.537 445.197 845.097 444.597C844.157 444.477 843.197 444.417 842.247 444.417Z" fill="#262626"/>
<path d="M896.658 561.486C889.738 561.486 882.848 558.616 877.928 552.996C870.218 544.186 849.918 538.846 841.298 537.636C827.728 535.736 818.218 523.206 820.068 509.636C821.928 496.066 834.358 486.526 847.948 488.356C852.528 488.966 893.298 495.047 915.358 520.257C924.398 530.587 923.358 546.306 913.018 555.346C908.308 559.456 902.468 561.486 896.658 561.486Z" fill="#FAFAFA"/>
<path d="M896.657 565.037C888.457 565.037 880.658 561.497 875.257 555.327C868.278 547.347 848.677 542.247 840.807 541.147C825.317 538.977 814.437 524.617 816.557 509.147C818.677 493.657 832.957 482.747 848.437 484.827C853.147 485.457 895.137 491.727 918.037 517.907C923.037 523.617 925.507 530.937 925.007 538.507C924.507 546.077 921.077 553.007 915.367 558.007C910.177 562.537 903.537 565.037 896.657 565.037ZM844.648 491.677C834.198 491.677 825.048 499.447 823.588 510.117C821.998 521.727 830.167 532.487 841.787 534.117C848.987 535.127 871.557 540.327 880.597 550.657C884.647 555.277 890.498 557.937 896.648 557.937C901.808 557.937 906.787 556.067 910.667 552.657C914.957 548.907 917.528 543.717 917.898 538.037C918.278 532.357 916.417 526.867 912.667 522.577C891.467 498.347 851.907 492.457 847.467 491.857C846.527 491.737 845.588 491.677 844.648 491.677Z" fill="#262626"/>
<path d="M880.298 597.877C872.528 589.007 851.948 583.617 843.748 582.527C830.138 580.717 820.568 568.207 822.388 554.597C824.198 540.977 836.688 531.407 850.328 533.237C854.908 533.847 895.668 539.927 917.728 565.137C926.778 575.467 925.728 591.177 915.388 600.227L880.298 597.877Z" fill="#FAFAFA"/>
<path d="M915.387 603.777C914.397 603.777 913.417 603.367 912.717 602.567C911.427 601.097 911.577 598.847 913.047 597.557C917.327 593.807 919.897 588.617 920.277 582.937C920.657 577.257 918.797 571.767 915.047 567.487C893.847 543.257 854.287 537.367 849.847 536.767C844.207 536.017 838.597 537.497 834.077 540.957C829.557 544.417 826.657 549.427 825.907 555.077C825.157 560.717 826.647 566.317 830.107 570.837C833.567 575.357 838.577 578.267 844.217 579.017C853.187 580.217 874.467 585.827 882.977 595.547C884.267 597.017 884.117 599.267 882.647 600.557C881.167 601.847 878.927 601.697 877.637 600.217C870.917 592.547 851.947 587.207 843.287 586.047C835.767 585.047 829.077 581.177 824.467 575.137C819.857 569.107 817.867 561.647 818.877 554.117C819.877 546.587 823.747 539.897 829.778 535.287C835.808 530.677 843.277 528.677 850.807 529.697C855.517 530.327 897.507 536.597 920.417 562.777C925.417 568.487 927.897 575.807 927.387 583.377C926.887 590.947 923.457 597.877 917.747 602.877C917.047 603.487 916.217 603.777 915.387 603.777Z" fill="#262626"/>
<path d="M152.497 629.557C152.497 629.557 277.137 577.077 335.337 549.947C393.547 522.817 489.657 505.797 489.657 505.797C587.497 479.817 674.027 509.507 677.667 510.787C690.727 515.377 697.587 529.657 693.027 542.737C688.467 555.807 674.167 562.717 661.077 558.197C660.807 558.107 650.777 554.727 634.237 551.467C664.307 567.537 680.937 584.777 682.127 586.037C691.627 596.067 691.187 611.837 681.217 621.387C674.157 628.147 664.147 629.947 655.487 626.907C651.917 625.647 648.567 623.567 645.757 620.667C645.627 620.537 641.027 615.917 632.557 609.677C639.227 617.217 642.867 622.457 643.347 623.167C651.037 634.637 647.987 650.117 636.557 657.867C629.717 662.507 621.387 663.307 614.127 660.757C609.247 659.047 604.857 655.827 601.717 651.247C601.437 650.837 575.957 614.577 524.517 594.517C563.327 613.527 581.637 640.167 582.647 641.667C590.317 653.107 587.267 668.477 575.917 676.257C569.077 680.947 560.707 681.747 553.397 679.187C548.577 677.497 544.217 674.327 541.067 669.847C540.367 668.847 527.297 650.657 499.007 637.947C480.287 668.327 433.557 664.077 433.557 664.077C433.557 664.077 266.527 827.797 255.987 826.307C245.447 824.817 203.237 826.847 159.897 766.007C114.687 702.567 152.497 629.557 152.497 629.557Z" fill="#FAFAFA"/>
<path d="M256.267 829.897C255.977 829.897 255.727 829.867 255.487 829.827C254.577 829.697 253.427 829.597 252.037 829.477C237.077 828.177 197.347 824.717 156.997 768.067C111.067 703.607 148.957 628.657 149.337 627.907C149.717 627.167 150.347 626.587 151.117 626.267C152.367 625.747 276.357 573.497 333.837 546.707C391.797 519.687 488.067 502.447 489.037 502.277C587.587 476.097 675.157 506.127 678.837 507.417C693.697 512.637 701.567 528.997 696.377 543.887C691.177 558.777 674.827 566.677 659.917 561.537C659.887 561.527 658.487 561.047 655.877 560.287C674.177 572.537 684.167 583.007 684.707 583.577C695.487 594.957 695.017 613.057 683.667 623.937C675.827 631.437 664.577 633.867 654.307 630.247C652.697 629.677 651.157 628.977 649.687 628.157C653.557 639.977 649.327 653.467 638.527 660.797C631.057 665.867 621.487 667.107 612.927 664.097C607.147 662.067 602.247 658.317 598.767 653.257C598.647 653.087 592.947 645.007 581.607 634.457C584.067 637.477 585.377 639.387 585.577 639.677C594.257 652.617 590.807 670.337 577.897 679.177C570.427 684.297 560.817 685.557 552.197 682.527C546.477 680.517 541.617 676.837 538.137 671.867C537.637 671.147 525.937 654.727 500.267 642.437C481.677 668.677 443.457 668.167 434.887 667.717C427.887 674.567 389.827 711.737 351.157 748.317C270.417 824.717 259.857 829.897 256.267 829.897ZM155.117 632.307C150.727 641.647 122.407 707.267 162.797 763.957C201.247 817.927 238.607 821.177 252.667 822.407C253.977 822.517 255.097 822.617 256.017 822.737C267.957 818.597 369.437 721.957 431.057 661.547C431.807 660.817 432.837 660.467 433.867 660.547C434.327 660.607 478.647 664.217 495.977 636.097C496.917 634.577 498.837 633.987 500.457 634.717C529.797 647.897 543.407 667.007 543.967 667.817C546.587 671.557 550.247 674.337 554.557 675.847C561.047 678.127 568.277 677.187 573.887 673.347C583.597 666.697 586.197 653.377 579.677 643.657C578.937 642.557 561.037 616.377 522.937 597.717C521.227 596.877 520.477 594.837 521.247 593.097C522.017 591.357 524.007 590.517 525.787 591.217C578.737 611.867 604.387 648.887 604.637 649.257C607.247 653.057 610.937 655.877 615.287 657.407C621.727 659.667 628.927 658.747 634.547 654.937C644.327 648.297 646.947 634.937 640.387 625.157C640.357 625.107 636.807 619.857 629.887 612.037C628.687 610.677 628.697 608.627 629.927 607.287C631.147 605.947 633.187 605.747 634.657 606.827C643.507 613.347 648.257 618.147 648.297 618.197C650.667 620.647 653.477 622.447 656.667 623.567C664.407 626.287 672.867 624.477 678.757 618.827C687.297 610.647 687.657 597.037 679.547 588.487C678.857 587.757 662.517 570.617 632.567 554.607C631.017 553.777 630.307 551.937 630.897 550.277C631.487 548.617 633.207 547.647 634.927 547.987C651.987 551.347 662.137 554.807 662.237 554.847C673.467 558.727 685.767 552.777 689.677 541.577C693.577 530.377 687.667 518.077 676.497 514.147C672.897 512.887 587.327 483.547 490.577 509.237C489.327 509.467 393.957 526.557 336.847 553.177C282.337 578.567 168.267 626.757 155.117 632.307Z" fill="#262626"/>
<path d="M555.377 518.787C555.377 518.787 605.367 530.807 634.247 551.457L555.377 518.787Z" fill="#FAFAFA"/>
<path d="M634.237 555.007C633.527 555.007 632.797 554.787 632.177 554.347C604.197 534.347 555.037 522.357 554.537 522.247C552.627 521.787 551.457 519.867 551.917 517.957C552.377 516.047 554.297 514.897 556.197 515.337C558.267 515.837 607.197 527.757 636.307 548.577C637.907 549.717 638.277 551.937 637.127 553.537C636.437 554.497 635.347 555.007 634.237 555.007Z" fill="#262626"/>
<path d="M547.257 551.337C547.257 551.337 601.197 571.717 632.557 609.667L547.257 551.337Z" fill="#FAFAFA"/>
<path d="M632.557 613.227C631.537 613.227 630.517 612.787 629.817 611.937C599.417 575.147 546.537 554.867 546.007 554.667C544.167 553.977 543.247 551.927 543.937 550.087C544.627 548.247 546.687 547.327 548.517 548.017C550.757 548.867 603.707 569.177 635.297 607.407C636.547 608.917 636.337 611.157 634.817 612.407C634.157 612.957 633.357 613.227 632.557 613.227Z" fill="#262626"/>
<path d="M46.6377 670.677C45.1777 670.677 43.8077 669.767 43.2877 668.307C42.6277 666.457 43.5977 664.427 45.4477 663.777L151.308 626.207C153.158 625.547 155.188 626.517 155.848 628.367C156.508 630.217 155.538 632.247 153.688 632.897L47.8277 670.467C47.4377 670.607 47.0377 670.677 46.6377 670.677Z" fill="#FAFAFA"/>
</svg>
